PathFileType  4	(X/Y/Z) C:\Users\antoi\Documents\MyRepositories\mobilecap\ResultsAnalysis
DataRate	CameraRate	NumFrames	NumMarkers	Units	OrigDataRate	OrigDataStartFrame	OrigNumFrames
100.0	100.0	5	51	mm	100.0	34	271
Frame#	Time	r_knee			r_shank_antsup			r_ankle			r_calc			r_5meta			r_toe			L_knee			L_shank_antsup			L_ankle			L_calc			L_5meta			L_toe			r_sh2			r_sh3			r_sh4			L_sh2			L_sh3			r_thigh1			r_thigh2			r_thigh3			r_thigh4			r_thigh5			L_thigh1			L_thigh2			L_thigh3			L_thigh4			r.ASIS			r.PSIS			L.ASIS			L.PSIS			C7			R_Shoulder			L_Shoulder			R_Sternum			L_Sternum			R_humerus			R_elbow_med			R_elbow_lat			R_forearm			R_wrist_radius			R_wrist_ulna			L_humerus			L_elbow_med			L_elbow_lat			L_forearm			L_wrist_radius			L_wrist_ulna			R_HJC			L_HJC			R_HJC_reg			L_HJC_reg			
		X1	Y1	Z1	X2	Y2	Z2	X3	Y3	Z3	X4	Y4	Z4	X5	Y5	Z5	X6	Y6	Z6	X7	Y7	Z7	X8	Y8	Z8	X9	Y9	Z9	X10	Y10	Z10	X11	Y11	Z11	X12	Y12	Z12	X13	Y13	Z13	X14	Y14	Z14	X15	Y15	Z15	X16	Y16	Z16	X17	Y17	Z17	X18	Y18	Z18	X19	Y19	Z19	X20	Y20	Z20	X21	Y21	Z21	X22	Y22	Z22	X23	Y23	Z23	X24	Y24	Z24	X25	Y25	Z25	X26	Y26	Z26	X27	Y27	Z27	X28	Y28	Z28	X29	Y29	Z29	X30	Y30	Z30	X31	Y31	Z31	X32	Y32	Z32	X33	Y33	Z33	X34	Y34	Z34	X35	Y35	Z35	X36	Y36	Z36	X37	Y37	Z37	X38	Y38	Z38	X39	Y39	Z39	X40	Y40	Z40	X41	Y41	Z41	X42	Y42	Z42	X43	Y43	Z43	X44	Y44	Z44	X45	Y45	Z45	X46	Y46	Z46	X47	Y47	Z47	X48	Y48	Z48	X49	Y49	Z49	X50	Y50	Z50	X51	Y51	Z51	

34	0.33000000	-1157.50331	778.51927	-426.92728	-1124.07799	715.16859	-428.42546	-1206.27394	391.92936	-433.24676	-1262.01609	361.03099	-472.99259	-1096.97783	350.67661	-409.83026	-1060.41244	369.86042	-465.26919	-1132.71391	773.97367	-707.31747	-1102.38440	686.17244	-695.33485	-1204.08032	401.66768	-714.28346	-1263.96431	360.24386	-670.44245	-1104.84243	352.76346	-739.64792	-1054.76034	368.86026	-686.26784	-1148.07699	605.21841	-416.44170	-1191.89130	735.26709	-398.93864	-1223.86279	620.82379	-391.82958	-1174.12907	716.83274	-744.02135	-1199.71023	594.67564	-749.70927	-1119.05412	1031.07041	-382.22144	-1111.03509	917.25550	-399.97326	-1221.13370	908.49932	-415.84345	-1231.04004	1022.06771	-392.78828	-1172.40952	890.84338	-396.35085	-1104.62727	1052.89716	-756.37961	-1091.25519	916.00681	-731.06127	-1216.29389	1038.84813	-761.03649	-1205.70096	907.77529	-719.51419	-1072.26981	1220.84845	-458.16796	-1271.59020	1289.30344	-534.66029	-1067.84228	1222.67268	-674.62764	-1268.61618	1288.74435	-617.29603	-1053.41498	1700.93599	-560.81190	-997.44288	1654.03509	-417.82534	-1001.29526	1661.84248	-703.14542	-948.72585	1606.70701	-539.61507	-950.82773	1605.73238	-578.69088	-1022.64691	1544.16061	-348.42362	-1212.81907	1426.26914	-318.28759	-1165.86946	1414.54296	-271.56564	-1141.51093	1321.96958	-268.60589	-1159.32769	1179.45607	-274.77670	-1185.07445	1183.94450	-247.40803	-1033.73965	1578.47903	-787.44735	-1205.33650	1434.99613	-829.84069	-1156.83633	1440.46354	-876.21812	-1137.85705	1333.19624	-890.73021	-1148.88925	1206.01886	-889.78257	-1174.62508	1212.51815	-921.14349	-1169.93946	1150.63409	-465.51422	-1163.52005	1153.82436	-672.89776	-1154.70554	1170.08190	-490.29234	-1149.56547	1169.11556	-633.09483	
35	0.34000000	-1154.69537	778.22950	-426.63148	-1121.20958	714.53042	-428.37115	-1206.19921	391.92309	-433.20088	-1262.04420	361.02219	-473.00488	-1096.99773	350.65188	-409.85919	-1060.37895	369.86651	-465.33195	-1130.17149	773.73149	-707.65839	-1100.35808	685.52178	-695.34567	-1204.01937	401.71208	-714.29326	-1263.92031	360.27977	-670.43112	-1104.83336	352.79593	-739.54234	-1054.72482	368.92591	-686.27022	-1146.07484	604.71462	-416.64236	-1188.85813	735.09369	-398.61752	-1221.59034	620.83700	-391.22942	-1171.63844	716.94138	-744.43784	-1198.17297	594.61936	-749.80320	-1117.91731	1029.89526	-381.35529	-1109.48774	916.81169	-399.41751	-1219.28010	907.62293	-415.90082	-1229.71586	1021.12448	-393.01818	-1170.59566	890.33647	-396.39617	-1103.57665	1052.52713	-755.83905	-1089.40589	915.69639	-730.66292	-1217.02416	1037.30792	-759.46061	-1203.85629	906.87785	-719.77973	-1071.76611	1220.02882	-458.12499	-1270.53692	1289.85325	-534.63966	-1067.56583	1221.71967	-674.28430	-1267.58214	1289.26321	-617.33574	-1048.55434	1699.57555	-560.60354	-992.78149	1652.23556	-417.60435	-996.75367	1660.28833	-703.13006	-944.45719	1604.66820	-539.38123	-946.58324	1603.71278	-578.50535	-1020.83463	1543.68668	-347.59809	-1214.59526	1431.30987	-318.06714	-1168.49569	1418.65197	-270.90904	-1146.89959	1325.41517	-266.78584	-1168.89219	1183.50853	-272.04281	-1194.73637	1188.97834	-244.93767	-1031.56699	1578.51089	-787.99727	-1207.47964	1440.26862	-829.26341	-1159.49418	1444.50998	-876.18655	-1144.17532	1336.85611	-892.03523	-1159.67323	1210.18438	-891.95215	-1185.25932	1217.85416	-923.46762	-1170.00347	1150.54125	-465.34237	-1163.54729	1153.52428	-672.72787	-1154.59275	1169.87664	-490.17632	-1149.49750	1168.85933	-632.77749	
36	0.35000000	-1151.91857	777.89541	-426.51069	-1118.35944	713.94863	-428.18532	-1206.13194	391.90442	-433.16177	-1261.98525	361.04097	-472.93950	-1096.95142	350.69869	-409.86453	-1060.36746	369.83044	-465.39304	-1127.52116	773.40243	-708.01184	-1098.30568	684.72582	-695.37095	-1203.95521	401.76796	-714.32698	-1263.78193	360.35503	-670.49196	-1104.82911	352.84282	-739.49550	-1054.72797	368.95728	-686.26732	-1144.05529	604.27072	-416.72350	-1185.81470	734.91836	-398.41185	-1219.45081	620.99314	-390.95444	-1169.52023	716.37507	-743.89570	-1196.62079	594.59706	-750.05307	-1116.29241	1028.94336	-380.72609	-1107.86919	916.50848	-398.70166	-1217.42484	906.91972	-415.88081	-1228.01535	1020.68674	-393.02133	-1168.68798	889.92371	-396.24451	-1102.32766	1052.01009	-755.31904	-1087.36811	915.39149	-730.31674	-1215.77220	1036.43064	-759.74495	-1202.01145	905.68646	-719.60965	-1071.17586	1219.11441	-458.00321	-1269.48552	1290.35531	-534.63784	-1067.01381	1220.69175	-673.95091	-1266.39248	1289.72843	-617.36068	-1043.62759	1698.07367	-560.27753	-988.16278	1650.33819	-417.51534	-992.23442	1658.58510	-703.11356	-940.14739	1602.51553	-539.14401	-942.27874	1601.55947	-578.43555	-1018.95990	1543.13307	-346.68389	-1216.03883	1436.27431	-318.24094	-1170.86410	1422.79485	-270.44826	-1152.02618	1328.96739	-265.17432	-1178.18022	1187.57663	-270.05664	-1204.05880	1193.95828	-243.11039	-1029.36002	1578.37681	-788.47154	-1209.42936	1445.42230	-828.55717	-1161.94141	1448.58941	-876.01234	-1150.18284	1340.55783	-893.22245	-1170.34679	1214.69247	-893.68028	-1195.87731	1223.00639	-924.37840	-1169.99416	1150.36499	-465.17607	-1163.39169	1153.18288	-672.55926	-1154.47289	1169.56684	-490.15348	-1149.14680	1168.48753	-632.60539	
37	0.36000000	-1149.10417	777.55750	-426.41208	-1115.49785	713.29083	-428.03684	-1206.12062	391.84855	-433.19438	-1261.90009	361.12827	-472.90652	-1096.86716	350.75060	-409.85428	-1060.38929	369.72957	-465.39189	-1124.83151	772.79806	-707.77828	-1096.11096	683.88330	-695.33357	-1203.88032	401.82750	-714.37765	-1263.74215	360.42130	-670.47533	-1104.82361	352.89920	-739.50535	-1054.77133	368.93799	-686.22501	-1142.03342	603.89717	-416.57983	-1182.73174	734.84795	-398.13786	-1217.32403	621.28125	-390.93937	-1167.30622	715.67034	-743.51399	-1194.97624	594.50800	-750.25492	-1115.04057	1028.69513	-380.48596	-1105.85976	916.37293	-398.20118	-1215.52206	906.26785	-415.78782	-1226.44664	1020.24710	-392.78690	-1166.68408	889.41033	-395.98137	-1100.95371	1051.47738	-755.01607	-1085.18249	915.08070	-730.04334	-1212.67112	1036.13704	-761.64190	-1200.02348	904.36855	-719.39291	-1070.56392	1218.09036	-457.97672	-1268.36161	1290.78301	-534.60635	-1066.47774	1219.57429	-673.63536	-1265.20542	1290.16700	-617.35333	-1038.65360	1696.44370	-560.05138	-983.46671	1648.33869	-417.34350	-987.66348	1656.66720	-703.00531	-935.85707	1600.24118	-538.95560	-937.92752	1599.29861	-578.40279	-1017.00768	1542.50808	-345.78529	-1217.07016	1441.09276	-318.86504	-1172.95982	1426.83622	-270.16628	-1156.82756	1332.55714	-263.90909	-1187.03629	1191.78252	-268.52043	-1212.92724	1199.02378	-241.86846	-1027.10062	1578.03069	-788.63472	-1211.16756	1450.47464	-827.91314	-1164.15057	1452.61369	-875.74239	-1156.04121	1344.40327	-894.14200	-1180.47690	1219.22412	-895.01720	-1206.22681	1228.27598	-924.59964	-1169.95935	1150.10141	-465.04071	-1163.27851	1152.78864	-672.42318	-1154.27362	1169.15042	-490.16460	-1148.84716	1168.09126	-632.42102	
38	0.37000000	-1146.15008	777.15323	-426.21736	-1112.52060	712.42276	-428.01317	-1206.06886	391.83819	-433.18068	-1261.89156	361.20488	-472.93536	-1096.82899	350.72239	-409.84400	-1060.40148	369.63848	-465.36181	-1121.95273	772.13862	-707.46206	-1093.70893	683.11348	-695.32038	-1203.78735	401.88291	-714.43236	-1263.81649	360.44691	-670.38277	-1104.81035	352.93692	-739.49981	-1054.78687	368.92472	-686.18162	-1140.02382	603.40559	-416.31512	-1179.57172	734.73178	-397.74669	-1215.08205	621.46328	-390.87270	-1164.54919	715.42618	-743.97280	-1193.19638	594.38000	-750.28211	-1114.03621	1028.67993	-380.01182	-1103.65193	916.23332	-397.91800	-1213.51201	905.42081	-415.66601	-1225.33257	1019.07712	-392.78397	-1164.70939	888.66790	-395.92592	-1099.64933	1051.04442	-754.75908	-1082.92969	914.78323	-729.88521	-1210.13247	1035.66951	-762.75323	-1197.83585	903.14657	-719.58765	-1070.01211	1216.94671	-458.16771	-1267.17308	1291.22614	-534.56160	-1066.00716	1218.38234	-673.41817	-1264.13064	1290.51486	-617.19952	-1033.63567	1694.72763	-560.06920	-978.70410	1646.13030	-417.12335	-982.98144	1654.50159	-702.98491	-931.56215	1597.79005	-538.85162	-933.55345	1596.91192	-578.32654	-1014.97664	1541.85070	-345.00149	-1217.78399	1445.70937	-319.46579	-1174.78271	1430.67927	-270.03658	-1161.28179	1336.07252	-262.98163	-1195.31456	1196.16411	-267.14427	-1221.30229	1204.31796	-240.94294	-1024.72052	1577.54156	-788.62566	-1212.57717	1455.38040	-826.99536	-1166.13154	1456.45615	-875.31011	-1161.61757	1348.33296	-894.77761	-1189.75304	1223.81400	-896.10409	-1215.89781	1233.79184	-924.81398	-1169.92194	1149.75358	-464.96668	-1163.32015	1152.35516	-672.35276	-1154.02786	1168.89293	-490.13780	-1148.80014	1167.67007	-632.12885	
